# xmcd
#
# Track frame offsets: 
#        150
#        26527
#        43803
#        58989
#        81580
#        96473
#        122554
#        142369
#        168133
#        183841
#        203910
#
# Disc length: 3349 seconds
#
# Revision: 1
# Processed by: cddbd v1.5.2PL0 Copyright (c) Steve Scherf et al.
# Submitted via: ExactAudioCopy v0.95b3
#
DISCID=a30d130b
DTITLE=Jason Boland and The Stragglers - Pearl Snaps
DYEAR=1900
DGENRE=Country
TTITLE0=Somewhere Down In Texas
TTITLE1=Drink'in Song
TTITLE2=Pearl Snaps
TTITLE3=Proud Souls
TTITLE4=Ponies
TTITLE5=Backslider Blues
TTITLE6=Telephone Romeo
TTITLE7=Devil Pays In Gold
TTITLE8=If I Ever Get Back To Oklahoma
TTITLE9=No Damn Good
TTITLE10=Change In the Weather
EXTD=
EXTT0=
EXTT1=
EXTT2=
EXTT3=
EXTT4=
EXTT5=
EXTT6=
EXTT7=
EXTT8=
EXTT9=
EXTT10=
PLAYORDER=
